<svg xmlns="http://www.w3.org/2000/svg" viewBox="0 0 271.12 271.11"><defs><style>.a{fill:#2d2a6e;}</style></defs><path class="a" d="M258.68,110.48H229.09a12.44,12.44,0,0,1-11.54-7.83c-.24-.6-.49-1.2-.75-1.79a12.46,12.46,0,0,1,2.63-13.71l20.89-20.89a12.45,12.45,0,0,0,0-17.59L222.44,30.8a12.42,12.42,0,0,0-17.58,0L184,51.69a12.44,12.44,0,0,1-13.7,2.62c-.6-.26-1.22-.51-1.83-.76A12.44,12.44,0,0,1,160.6,42V12.43A12.43,12.43,0,0,0,148.17,0H122.88a12.43,12.43,0,0,0-12.43,12.43V42a12.44,12.44,0,0,1-7.83,11.54l-1.76.73a12.44,12.44,0,0,1-13.7-2.62L66.23,30.76a12.45,12.45,0,0,0-17.59,0L30.77,48.64a12.42,12.42,0,0,0,0,17.58L51.69,87.15a12.46,12.46,0,0,1,2.63,13.71c-.26.59-.51,1.19-.75,1.79A12.44,12.44,0,0,1,42,110.48H12.44A12.44,12.44,0,0,0,0,122.91V148.2a12.44,12.44,0,0,0,12.44,12.43H42a12.44,12.44,0,0,1,11.54,7.83q.36.9.75,1.8A12.44,12.44,0,0,1,51.69,184l-21,21a12.45,12.45,0,0,0,0,17.59l17.88,17.87a12.42,12.42,0,0,0,17.58,0l21-21a12.44,12.44,0,0,1,13.7-2.62l1.76.73a12.45,12.45,0,0,1,7.83,11.54v29.61a12.43,12.43,0,0,0,12.43,12.43h25.29a12.43,12.43,0,0,0,12.43-12.43V229.1a12.44,12.44,0,0,1,7.83-11.54c.61-.25,1.23-.5,1.83-.76a12.44,12.44,0,0,1,13.7,2.62l20.93,20.93a12.45,12.45,0,0,0,17.59,0l17.87-17.88a12.42,12.42,0,0,0,0-17.58L219.43,184a12.44,12.44,0,0,1-2.63-13.7q.39-.9.75-1.8a12.44,12.44,0,0,1,11.54-7.83h29.59a12.44,12.44,0,0,0,12.44-12.43V122.91A12.44,12.44,0,0,0,258.68,110.48Zm-123.12,65.9a40.83,40.83,0,1,1,40.82-40.82A40.82,40.82,0,0,1,135.56,176.38Z"/></svg>