<svg xmlns="http://www.w3.org/2000/svg" viewBox="0 0 171.08 246.08"><defs><style>.a{fill:none;stroke:#232370;stroke-width:15.08px;}</style></defs><path class="a" d="M164,46.5A38.5,38.5,0,0,1,125.5,85H86V8h39.5A38.5,38.5,0,0,1,164,46.5Z" transform="translate(-0.46 -0.46)"/><path class="a" d="M8,46.5A38.5,38.5,0,0,0,46.5,85H86V8H46.5A38.5,38.5,0,0,0,8,46.5Z" transform="translate(-0.46 -0.46)"/><path class="a" d="M8,123.5A38.5,38.5,0,0,0,46.5,162H86V85H46.5A38.5,38.5,0,0,0,8,123.5Z" transform="translate(-0.46 -0.46)"/><path class="a" d="M8,200.5A38.72,38.72,0,0,0,46.75,239h0A39.21,39.21,0,0,0,86,200V162H46.5A38.5,38.5,0,0,0,8,200.5Z" transform="translate(-0.46 -0.46)"/><path class="a" d="M86,123.5A38.5,38.5,0,0,0,124.5,162h1A38.5,38.5,0,0,0,164,123.5h0A38.5,38.5,0,0,0,125.5,85h-1A38.5,38.5,0,0,0,86,123.5Z" transform="translate(-0.46 -0.46)"/></svg>