<svg xmlns="http://www.w3.org/2000/svg" viewBox="0 0 529 529"><defs><style>.a{fill:#232370;}.b{fill:#fff;stroke:#232370;stroke-miterlimit:10;}</style></defs><path class="a" d="M488.39,0H40.61A40.61,40.61,0,0,0,0,40.61V488.39A40.61,40.61,0,0,0,40.61,529H488.39A40.61,40.61,0,0,0,529,488.39V40.61A40.61,40.61,0,0,0,488.39,0ZM157,453H77V199h80ZM118,165a45,45,0,1,1,45-45A45,45,0,0,1,118,165ZM450,316.29V453H372V316c-2-43-17-55-51.43-51.5S285.15,315,285.15,315s-.15,77,0,138H206V199h76v35.85c13.32-22,38.4-43.07,85.54-41.38C464.09,196.94,450,316.29,450,316.29Z"/><circle class="b" cx="118" cy="120" r="45"/><rect class="b" x="77" y="199" width="80" height="254"/><circle class="b" cx="118" cy="120" r="45"/><rect class="b" x="77" y="199" width="80" height="254"/></svg>